<svg xmlns="http://www.w3.org/2000/svg" version="1.1" xlink="http://www.w3.org/1999/xlink" xmlns:svgjs="http://svgjs.com/svgjs" width="300" height="90.22799240025334"><defs id="SvgjsDefs1162"/><g id="SvgjsG1163" transform="scale(1.8999366687777077)" opacity="1"><g id="SvgjsG1164" class="text" transform="translate(4.230000000000004, 28.51) scale(1)" light-content="false" fill="#eb1980"><path d="M25.09 -24.25C24.93 -24.27 24.72 -24.3 24.47 -24.33C24.21 -24.36 23.93 -24.39 23.63 -24.41C23.33 -24.44 23.04 -24.47 22.75 -24.48C22.46 -24.5 22.19 -24.52 21.97 -24.53C21.74 -23.99 21.48 -23.3 21.19 -22.46C20.91 -21.61 20.6 -20.66 20.27 -19.59C19.95 -18.53 19.61 -17.37 19.26 -16.12C18.91 -14.87 18.56 -13.58 18.22 -12.24C17.47 -10.98 16.7 -9.84 15.91 -8.83C15.11 -7.81 14.37 -6.95 13.7 -6.24C13.02 -5.53 12.44 -4.99 11.96 -4.62C11.48 -4.26 11.18 -4.09 11.05 -4.12C10.95 -4.15 10.87 -4.29 10.8 -4.56C10.74 -4.83 10.69 -5.18 10.66 -5.59C10.62 -6.01 10.6 -6.48 10.58 -7C10.56 -7.53 10.55 -8.06 10.55 -8.59C10.55 -9.13 10.56 -9.66 10.56 -10.17C10.57 -10.68 10.58 -11.13 10.59 -11.52C10.6 -12.44 10.64 -13.39 10.72 -14.36C10.79 -15.33 10.88 -16.27 10.98 -17.18C11.09 -18.09 11.2 -18.95 11.33 -19.77C11.45 -20.58 11.57 -21.3 11.68 -21.93C11.79 -22.56 11.88 -23.08 11.96 -23.48C12.04 -23.88 12.09 -24.13 12.12 -24.22C12.04 -24.31 11.89 -24.47 11.67 -24.72C11.45 -24.96 11.2 -25.23 10.91 -25.54C10.61 -25.85 10.31 -26.17 9.99 -26.51C9.67 -26.85 9.36 -27.16 9.08 -27.46C8.79 -27.75 8.54 -27.99 8.33 -28.19C8.12 -28.38 7.98 -28.49 7.92 -28.51C7.57 -25.82 7.3 -23.37 7.11 -21.17C6.92 -18.96 6.78 -16.95 6.69 -15.14C6.55 -15.28 6.41 -15.42 6.26 -15.55C6.11 -15.69 5.95 -15.84 5.78 -15.98C4.22 -12.21 2.58 -8.99 0.86 -6.32C-0.86 -3.64 -2.56 -1.57 -4.23 -0.1C-4.1 0.06 -3.95 0.23 -3.78 0.4C-3.61 0.58 -3.43 0.76 -3.26 0.94C-3.08 1.11 -2.91 1.28 -2.74 1.44C-2.58 1.6 -2.43 1.75 -2.32 1.87C-2.1 1.7 -1.8 1.42 -1.4 1.02C-1.01 0.63 -0.56 0.16 -0.06 -0.39C0.44 -0.93 0.97 -1.53 1.55 -2.19C2.12 -2.85 2.7 -3.53 3.29 -4.24C3.88 -4.94 4.46 -5.65 5.04 -6.36C5.61 -7.07 6.14 -7.75 6.63 -8.39C6.69 -6.78 6.79 -5.55 6.92 -4.69C7.05 -3.83 7.17 -3.31 7.29 -3.13C7.4 -2.94 7.6 -2.72 7.88 -2.44C8.16 -2.17 8.47 -1.91 8.81 -1.68C9.15 -1.46 9.49 -1.28 9.83 -1.17C10.18 -1.05 10.47 -1.07 10.71 -1.2C11.29 -1.51 11.92 -1.93 12.6 -2.46C13.18 -2.9 13.85 -3.5 14.6 -4.24C15.35 -4.98 16.14 -5.9 16.96 -7.01C16.69 -5.76 16.43 -4.53 16.2 -3.3C15.96 -2.07 15.76 -0.89 15.58 0.25C15.4 1.39 15.26 2.48 15.16 3.51C15.06 4.54 15 5.48 14.99 6.34C15.13 6.27 15.33 6.17 15.59 6.03C15.85 5.9 16.15 5.74 16.47 5.57C16.8 5.4 17.14 5.22 17.5 5.04C17.85 4.85 18.19 4.67 18.52 4.49C18.85 4.32 19.14 4.15 19.41 4C19.68 3.84 19.89 3.72 20.02 3.63C20.03 0.49 20.18 -2.37 20.45 -4.96C20.73 -7.54 21.09 -9.95 21.55 -12.18C22.01 -14.41 22.54 -16.5 23.15 -18.46C23.76 -20.42 24.41 -22.35 25.09 -24.25Z M36.21 -4.23L35.37 -5.07C34.81 -4.54 34.24 -4.02 33.67 -3.51C33.1 -2.99 32.5 -2.53 31.88 -2.13C31.26 -1.73 30.62 -1.4 29.95 -1.15C29.28 -0.9 28.57 -0.77 27.81 -0.77C27.39 -0.77 27.1 -0.84 26.94 -0.96C26.79 -1.09 26.71 -1.33 26.71 -1.68C26.71 -1.95 26.73 -2.22 26.76 -2.49C27.77 -2.94 28.69 -3.38 29.53 -3.82C30.36 -4.27 31.08 -4.7 31.68 -5.12C32.27 -5.55 32.73 -5.96 33.06 -6.37C33.39 -6.77 33.55 -7.17 33.55 -7.56C33.55 -7.8 33.46 -8.09 33.28 -8.41C33.11 -8.74 32.87 -9.05 32.59 -9.35C32.3 -9.65 31.98 -9.9 31.63 -10.11C31.28 -10.31 30.93 -10.42 30.58 -10.42C30.08 -10.42 29.55 -10.34 28.96 -10.18C28.38 -10.01 27.79 -9.77 27.2 -9.45C26.61 -9.13 26.04 -8.73 25.5 -8.25C24.95 -7.77 24.47 -7.21 24.05 -6.58C23.62 -5.95 23.28 -5.25 23.02 -4.46C22.76 -3.68 22.64 -2.81 22.64 -1.87C22.64 -1.62 22.74 -1.32 22.96 -0.96C23.18 -0.61 23.45 -0.27 23.78 0.06C24.11 0.39 24.46 0.66 24.84 0.89C25.21 1.12 25.56 1.24 25.87 1.24C26.6 1.24 27.35 1.15 28.13 0.96C28.9 0.78 29.71 0.48 30.56 0.05C31.41 -0.37 32.3 -0.93 33.23 -1.63C34.17 -2.33 35.16 -3.2 36.21 -4.23ZM30.16 -8.52C30.29 -8.52 30.38 -8.48 30.45 -8.4C30.51 -8.32 30.54 -8.23 30.54 -8.13C30.54 -7.77 30.44 -7.42 30.25 -7.06C30.06 -6.71 29.8 -6.36 29.48 -6.02C29.16 -5.69 28.79 -5.36 28.39 -5.05C27.98 -4.74 27.56 -4.45 27.14 -4.18C27.32 -4.74 27.54 -5.28 27.79 -5.8C28.04 -6.32 28.31 -6.78 28.58 -7.18C28.86 -7.59 29.13 -7.91 29.41 -8.16C29.68 -8.4 29.93 -8.52 30.16 -8.52Z M39 -1.2C38.9 -1.2 38.82 -1.25 38.76 -1.36C38.7 -1.46 38.67 -1.69 38.67 -2.05C38.67 -2.58 38.74 -3.33 38.87 -4.3C39 -5.26 39.23 -6.37 39.57 -7.63C40.23 -8.25 40.88 -8.9 41.51 -9.57C42.14 -10.25 42.69 -10.87 43.18 -11.45C43.74 -12.11 44.27 -12.76 44.77 -13.41C45.85 -14.78 46.72 -15.98 47.39 -17.02C48.06 -18.05 48.59 -18.93 48.97 -19.67C49.35 -20.41 49.6 -21.02 49.74 -21.5C49.88 -21.98 49.95 -22.36 49.95 -22.64C49.95 -22.77 49.93 -22.89 49.9 -22.97C49.88 -23.06 49.82 -23.15 49.72 -23.24C49.65 -23.32 49.55 -23.44 49.4 -23.61C49.25 -23.77 49.08 -23.94 48.88 -24.11C48.69 -24.29 48.48 -24.45 48.25 -24.6C48.03 -24.76 47.81 -24.88 47.59 -24.96C47.45 -24.96 47.21 -24.88 46.84 -24.72C46.48 -24.56 46.04 -24.29 45.52 -23.92C45 -23.56 44.41 -23.08 43.76 -22.48C43.11 -21.89 42.42 -21.15 41.71 -20.27C41 -19.4 40.28 -18.37 39.54 -17.19C38.8 -16.01 38.08 -14.66 37.38 -13.13C37.04 -12.39 36.71 -11.53 36.39 -10.56C36.08 -9.59 35.8 -8.62 35.56 -7.64C35.32 -6.66 35.13 -5.73 34.99 -4.86C34.84 -3.98 34.77 -3.25 34.77 -2.68L34.77 -2.36C34.77 -2.27 34.78 -2.18 34.8 -2.11C34.84 -1.94 34.98 -1.68 35.22 -1.34C35.46 -1 35.75 -0.66 36.09 -0.32C36.44 0.02 36.81 0.32 37.2 0.57C37.6 0.82 37.97 0.95 38.33 0.95C38.59 0.95 38.92 0.85 39.31 0.67C39.7 0.49 40.12 0.25 40.57 -0.05C41.02 -0.35 41.49 -0.69 41.96 -1.07C42.44 -1.44 42.9 -1.82 43.34 -2.2C43.78 -2.58 44.19 -2.95 44.57 -3.31C44.95 -3.67 45.26 -3.98 45.51 -4.23C45.39 -4.37 45.25 -4.51 45.11 -4.68C44.97 -4.84 44.84 -4.97 44.74 -5.07C44.6 -4.96 44.39 -4.78 44.1 -4.54C43.82 -4.3 43.49 -4.03 43.13 -3.75C42.77 -3.46 42.38 -3.17 41.97 -2.87C41.56 -2.57 41.16 -2.3 40.79 -2.05C40.41 -1.81 40.06 -1.6 39.75 -1.44C39.43 -1.28 39.18 -1.2 39 -1.2ZM41.75 -13.8C42.45 -15.41 43.13 -16.78 43.79 -17.92C44.44 -19.06 45.04 -19.99 45.57 -20.73C46.11 -21.46 46.56 -22 46.92 -22.34C47.29 -22.67 47.52 -22.84 47.63 -22.84C47.68 -22.84 47.72 -22.83 47.72 -22.8C47.73 -22.77 47.73 -22.73 47.73 -22.67C47.73 -22.46 47.64 -22.12 47.46 -21.65C47.29 -21.17 47.01 -20.58 46.63 -19.86C46.25 -19.14 45.77 -18.32 45.19 -17.38C44.6 -16.44 43.91 -15.41 43.11 -14.28C42.91 -14.01 42.69 -13.72 42.45 -13.41C42.25 -13.14 42 -12.83 41.71 -12.46C41.41 -12.09 41.09 -11.71 40.73 -11.31C40.88 -11.71 41.04 -12.12 41.21 -12.53C41.37 -12.94 41.55 -13.37 41.75 -13.8Z M45.82 0.95C46.1 0.95 46.43 0.85 46.82 0.67C47.21 0.49 47.63 0.25 48.07 -0.05C48.52 -0.35 48.98 -0.69 49.46 -1.07C49.93 -1.44 50.39 -1.82 50.83 -2.2C51.27 -2.58 51.68 -2.95 52.06 -3.31C52.44 -3.67 52.75 -3.98 53.01 -4.23C52.88 -4.37 52.75 -4.51 52.6 -4.68C52.46 -4.84 52.34 -4.97 52.23 -5.07C52.1 -4.96 51.89 -4.78 51.63 -4.55C51.37 -4.33 51.07 -4.07 50.75 -3.79C50.42 -3.51 50.08 -3.23 49.72 -2.94C49.37 -2.65 49.03 -2.39 48.7 -2.15C48.37 -1.91 48.08 -1.71 47.83 -1.56C47.58 -1.42 47.39 -1.34 47.27 -1.34C47.2 -1.34 47.16 -1.37 47.16 -1.44C47.16 -1.57 47.2 -1.77 47.28 -2.05C47.36 -2.32 47.47 -2.64 47.59 -3.01C47.72 -3.37 47.86 -3.77 48.02 -4.19L48.5 -5.44C48.66 -5.86 48.82 -6.26 48.96 -6.65C49.1 -7.04 49.22 -7.38 49.31 -7.67C49.33 -7.75 49.35 -7.81 49.36 -7.86C49.37 -7.91 49.38 -7.96 49.38 -7.99C49.38 -8.16 49.26 -8.37 49.02 -8.6C48.78 -8.84 48.51 -9.06 48.2 -9.27C47.9 -9.48 47.61 -9.67 47.33 -9.81C47.06 -9.96 46.89 -10.04 46.82 -10.04C46.77 -10.04 46.68 -9.88 46.53 -9.57C46.38 -9.26 46.2 -8.86 46 -8.35C45.8 -7.85 45.58 -7.27 45.33 -6.63C45.09 -5.98 44.85 -5.32 44.63 -4.64C44.4 -3.96 44.19 -3.3 44 -2.65C43.81 -1.99 43.65 -1.42 43.54 -0.91C43.54 -0.7 43.62 -0.49 43.79 -0.28C43.97 -0.06 44.17 0.14 44.41 0.32C44.65 0.5 44.91 0.64 45.17 0.76C45.43 0.89 45.65 0.95 45.82 0.95ZM52.63 -15.28C52.63 -15.35 52.53 -15.47 52.33 -15.63C52.13 -15.8 51.89 -15.97 51.61 -16.14C51.32 -16.31 51.04 -16.46 50.74 -16.59C50.44 -16.73 50.19 -16.79 49.98 -16.79C49.88 -16.79 49.73 -16.66 49.54 -16.4C49.35 -16.13 49.17 -15.82 48.98 -15.46C48.8 -15.1 48.64 -14.73 48.5 -14.34C48.37 -13.96 48.3 -13.65 48.3 -13.41C48.3 -13.35 48.39 -13.25 48.58 -13.11C48.77 -12.98 49 -12.84 49.27 -12.69C49.54 -12.55 49.82 -12.42 50.11 -12.31C50.4 -12.19 50.65 -12.13 50.86 -12.12C50.93 -12.12 51.02 -12.19 51.13 -12.33C51.25 -12.48 51.37 -12.66 51.49 -12.87C51.62 -13.09 51.75 -13.33 51.88 -13.59C52.01 -13.84 52.13 -14.09 52.23 -14.33C52.34 -14.56 52.42 -14.77 52.5 -14.94C52.57 -15.12 52.62 -15.23 52.63 -15.28Z M51.73 -4.74L51.73 -4.74L52.56 -3.9C52.77 -4.08 53 -4.29 53.26 -4.53C53.51 -4.76 53.77 -5 54.03 -5.25C54.29 -5.5 54.54 -5.75 54.79 -6C55.05 -6.25 55.27 -6.49 55.46 -6.72C55.52 -6.3 55.57 -5.86 55.62 -5.41C55.66 -4.95 55.69 -4.49 55.69 -4C55.69 -3.67 55.66 -3.36 55.6 -3.06C55.54 -2.76 55.45 -2.5 55.33 -2.27C55.2 -2.04 55.04 -1.86 54.85 -1.72C54.66 -1.58 54.44 -1.51 54.18 -1.51C53.69 -1.51 53.35 -1.56 53.14 -1.67C52.94 -1.77 52.8 -1.82 52.73 -1.82C52.7 -1.82 52.65 -1.79 52.59 -1.73C52.52 -1.66 52.46 -1.59 52.4 -1.51C52.33 -1.43 52.28 -1.35 52.23 -1.28C52.19 -1.21 52.16 -1.16 52.16 -1.13C52.21 -0.96 52.36 -0.75 52.63 -0.5C52.89 -0.25 53.2 -0.01 53.56 0.22C53.91 0.45 54.29 0.65 54.69 0.81C55.09 0.97 55.46 1.05 55.79 1.05C56.18 1.05 56.6 0.97 57.05 0.81C57.49 0.65 57.96 0.43 58.44 0.15C58.92 -0.12 59.41 -0.44 59.9 -0.79C60.39 -1.15 60.88 -1.52 61.35 -1.91C61.83 -2.3 62.28 -2.69 62.73 -3.09C63.17 -3.49 63.58 -3.87 63.95 -4.23L63.18 -5.07C62.7 -4.62 62.2 -4.18 61.67 -3.73C61.22 -3.35 60.71 -2.95 60.14 -2.52C59.57 -2.09 58.99 -1.7 58.4 -1.36C58.7 -1.74 58.91 -2.16 59.03 -2.64C59.15 -3.11 59.21 -3.53 59.21 -3.9C59.21 -4.51 59.17 -5.04 59.1 -5.51C59.02 -5.97 58.96 -6.41 58.89 -6.82C58.83 -7.24 58.8 -7.65 58.79 -8.08C58.78 -8.5 58.85 -8.98 58.99 -9.5C58.99 -9.55 58.88 -9.68 58.67 -9.89C58.46 -10.1 58.21 -10.34 57.94 -10.59C57.66 -10.84 57.39 -11.08 57.11 -11.3C56.84 -11.52 56.63 -11.68 56.5 -11.76C56.4 -11.76 56.3 -11.68 56.19 -11.52C56.07 -11.36 55.95 -11.15 55.83 -10.91C55.71 -10.67 55.6 -10.41 55.51 -10.11C55.41 -9.82 55.34 -9.54 55.29 -9.28C55.12 -8.78 54.89 -8.31 54.6 -7.87C54.3 -7.44 53.99 -7.03 53.65 -6.65C53.31 -6.27 52.97 -5.92 52.64 -5.6C52.3 -5.28 52 -5 51.73 -4.74Z M62.82 -4.74L62.82 -4.74L63.65 -3.9C63.85 -4.08 64.08 -4.29 64.34 -4.53C64.6 -4.76 64.86 -5 65.11 -5.25C65.37 -5.5 65.63 -5.75 65.88 -6C66.13 -6.25 66.36 -6.49 66.55 -6.72C66.61 -6.3 66.66 -5.86 66.7 -5.41C66.75 -4.95 66.77 -4.49 66.77 -4C66.77 -3.67 66.74 -3.36 66.69 -3.06C66.63 -2.76 66.54 -2.5 66.41 -2.27C66.29 -2.04 66.13 -1.86 65.94 -1.72C65.75 -1.58 65.52 -1.51 65.26 -1.51C64.78 -1.51 64.44 -1.56 64.23 -1.67C64.02 -1.77 63.89 -1.82 63.82 -1.82C63.78 -1.82 63.73 -1.79 63.67 -1.73C63.61 -1.66 63.55 -1.59 63.48 -1.51C63.42 -1.43 63.36 -1.35 63.32 -1.28C63.27 -1.21 63.25 -1.16 63.25 -1.13C63.3 -0.96 63.45 -0.75 63.71 -0.5C63.98 -0.25 64.29 -0.01 64.64 0.22C65 0.45 65.38 0.65 65.78 0.81C66.18 0.97 66.54 1.05 66.88 1.05C67.27 1.05 67.68 0.97 68.13 0.81C68.58 0.65 69.04 0.43 69.52 0.15C70 -0.12 70.49 -0.44 70.98 -0.79C71.48 -1.15 71.96 -1.52 72.44 -1.91C72.91 -2.3 73.37 -2.69 73.81 -3.09C74.25 -3.49 74.66 -3.87 75.04 -4.23L74.27 -5.07C73.79 -4.62 73.28 -4.18 72.75 -3.73C72.31 -3.35 71.8 -2.95 71.23 -2.52C70.65 -2.09 70.07 -1.7 69.49 -1.36C69.79 -1.74 70 -2.16 70.12 -2.64C70.24 -3.11 70.3 -3.53 70.3 -3.9C70.3 -4.51 70.26 -5.04 70.19 -5.51C70.11 -5.97 70.04 -6.41 69.98 -6.82C69.92 -7.24 69.88 -7.65 69.88 -8.08C69.87 -8.5 69.94 -8.98 70.07 -9.5C70.07 -9.55 69.97 -9.68 69.76 -9.89C69.54 -10.1 69.3 -10.34 69.03 -10.59C68.75 -10.84 68.48 -11.08 68.2 -11.3C67.93 -11.52 67.72 -11.68 67.58 -11.76C67.49 -11.76 67.39 -11.68 67.27 -11.52C67.16 -11.36 67.04 -11.15 66.92 -10.91C66.8 -10.67 66.69 -10.41 66.59 -10.11C66.5 -9.82 66.42 -9.54 66.38 -9.28C66.21 -8.78 65.97 -8.31 65.68 -7.87C65.39 -7.44 65.07 -7.03 64.74 -6.65C64.4 -6.27 64.06 -5.92 63.72 -5.6C63.38 -5.28 63.08 -5 62.82 -4.74Z M83.91 -1.51C83.91 -1.64 83.92 -1.82 83.94 -2.05C83.95 -2.29 84 -2.57 84.07 -2.9C84.15 -3.24 84.26 -3.62 84.4 -4.06C84.54 -4.51 84.75 -5 85.01 -5.53C85.01 -5.66 84.96 -5.84 84.86 -6.08C84.77 -6.31 84.65 -6.55 84.51 -6.81C84.37 -7.06 84.22 -7.29 84.06 -7.5C83.9 -7.71 83.76 -7.87 83.63 -7.96C83.61 -7.97 83.59 -7.97 83.58 -7.96C83.57 -7.95 83.57 -7.93 83.57 -7.92C83.35 -7.56 83.08 -7.2 82.78 -6.84C82.47 -6.49 82.17 -6.17 81.88 -5.9C81.55 -5.56 81.21 -5.25 80.85 -4.97C80.45 -4.63 80.06 -4.32 79.69 -4.01C79.32 -3.71 78.98 -3.45 78.67 -3.22C78.36 -3 78.08 -2.82 77.83 -2.69C77.59 -2.56 77.38 -2.49 77.22 -2.49C77.06 -2.49 76.98 -2.59 76.98 -2.78C76.98 -3.05 77.14 -3.48 77.46 -4.08C77.78 -4.68 78.36 -5.4 79.2 -6.22C79.56 -6.57 79.94 -6.92 80.35 -7.27C80.71 -7.57 81.11 -7.89 81.57 -8.22C82.03 -8.56 82.52 -8.87 83.03 -9.14L83.07 -9.18C83.08 -9.19 83.08 -9.21 83.07 -9.23C83.02 -9.3 82.93 -9.39 82.78 -9.5C82.64 -9.6 82.47 -9.71 82.29 -9.82C82.1 -9.93 81.91 -10.03 81.72 -10.13C81.53 -10.23 81.37 -10.3 81.23 -10.35C81.19 -10.37 81.17 -10.38 81.15 -10.36C81.13 -10.35 81.11 -10.35 81.09 -10.35C80.47 -10.16 79.88 -9.92 79.32 -9.61C78.76 -9.3 78.26 -8.99 77.83 -8.7C77.31 -8.34 76.83 -7.96 76.38 -7.56C75.51 -6.77 74.82 -6 74.32 -5.25C73.81 -4.5 73.43 -3.82 73.18 -3.22C72.92 -2.62 72.75 -2.13 72.69 -1.74C72.62 -1.35 72.58 -1.12 72.58 -1.05C72.58 -0.81 72.65 -0.57 72.78 -0.33C72.91 -0.09 73.07 0.13 73.25 0.32C73.44 0.51 73.62 0.66 73.81 0.77C74 0.89 74.15 0.95 74.27 0.95L74.37 0.95C74.4 0.95 74.45 0.93 74.51 0.91C74.99 0.75 75.51 0.51 76.08 0.2C76.65 -0.12 77.21 -0.47 77.77 -0.86C78.33 -1.25 78.87 -1.66 79.38 -2.1C79.89 -2.53 80.33 -2.95 80.71 -3.35C80.58 -2.9 80.47 -2.53 80.4 -2.23C80.33 -1.92 80.29 -1.66 80.27 -1.45C80.24 -1.24 80.23 -1.07 80.24 -0.94C80.25 -0.8 80.25 -0.69 80.25 -0.6C80.25 -0.36 80.32 -0.14 80.45 0.05C80.59 0.25 80.76 0.42 80.97 0.56C81.18 0.7 81.4 0.81 81.65 0.89C81.9 0.97 82.12 1.01 82.33 1.01C82.63 1.01 82.98 0.92 83.38 0.73C83.78 0.54 84.2 0.3 84.65 0C85.1 -0.3 85.55 -0.64 86.02 -1.02C86.49 -1.41 86.95 -1.79 87.39 -2.18C87.83 -2.57 88.24 -2.95 88.63 -3.31C89.01 -3.67 89.34 -3.98 89.62 -4.23C89.49 -4.37 89.35 -4.52 89.19 -4.69C89.04 -4.86 88.91 -5 88.81 -5.1C88.67 -4.98 88.47 -4.8 88.21 -4.57C87.96 -4.34 87.67 -4.09 87.35 -3.82C87.03 -3.54 86.69 -3.26 86.34 -2.97C85.99 -2.69 85.66 -2.43 85.35 -2.2C85.04 -1.97 84.77 -1.78 84.53 -1.63C84.29 -1.48 84.12 -1.41 84.01 -1.41C83.94 -1.41 83.91 -1.44 83.91 -1.51Z M123.2 -22.14C123.2 -22.33 123.14 -22.56 123.03 -22.83C122.91 -23.1 122.76 -23.38 122.57 -23.68C122.38 -23.97 122.17 -24.25 121.92 -24.54C121.67 -24.82 121.43 -25.07 121.18 -25.3C120.93 -25.53 120.69 -25.71 120.45 -25.85C120.21 -25.99 120 -26.06 119.81 -26.06C118.36 -26.06 116.84 -25.72 115.25 -25.03C113.66 -24.35 112.07 -23.44 110.46 -22.29C110.48 -22.37 110.48 -22.45 110.49 -22.52C110.5 -22.6 110.5 -22.67 110.5 -22.74C110.5 -23.12 110.46 -23.41 110.4 -23.62C110.26 -23.94 110.04 -24.27 109.74 -24.63C109.48 -24.93 109.12 -25.27 108.66 -25.65C108.2 -26.04 107.59 -26.43 106.84 -26.83C106.81 -25.53 106.66 -24.11 106.37 -22.55C106.09 -20.99 105.71 -19.39 105.26 -17.74C103.87 -16.32 102.58 -14.81 101.37 -13.23C100.17 -11.64 99.13 -10.05 98.24 -8.47C97.36 -6.89 96.67 -5.36 96.16 -3.88C95.65 -2.41 95.39 -1.07 95.39 0.14C95.39 0.21 95.43 0.32 95.49 0.49C95.56 0.66 95.66 0.84 95.78 1.04C95.9 1.24 96.04 1.45 96.19 1.67C96.34 1.88 96.51 2.09 96.68 2.27C96.85 2.45 97.03 2.6 97.21 2.72C97.4 2.84 97.57 2.91 97.75 2.92C98.16 2.94 98.57 2.86 98.99 2.67C99.41 2.48 99.83 2.21 100.25 1.85C100.66 1.49 101.09 1.04 101.51 0.52C101.93 -0.01 102.35 -0.6 102.76 -1.24C102.81 -1.18 102.93 -1.04 103.13 -0.82C103.32 -0.59 103.56 -0.33 103.85 -0.03C104.13 0.28 104.45 0.6 104.81 0.95C105.16 1.3 105.53 1.63 105.91 1.94C106.76 1.85 107.59 1.66 108.42 1.37C109.24 1.07 110.03 0.72 110.76 0.3C111.5 -0.12 112.19 -0.58 112.81 -1.1C113.43 -1.62 113.97 -2.15 114.43 -2.71C114.88 -3.26 115.23 -3.82 115.49 -4.38C115.75 -4.94 115.88 -5.48 115.88 -5.98C115.88 -6.05 115.81 -6.25 115.66 -6.57C115.52 -6.9 115.33 -7.26 115.1 -7.67C114.88 -8.07 114.62 -8.46 114.33 -8.84C114.04 -9.23 113.76 -9.52 113.49 -9.71C113.11 -9.91 112.6 -10.07 111.96 -10.22C111.32 -10.36 110.58 -10.51 109.76 -10.66C110.09 -10.94 110.48 -11.23 110.93 -11.51C111.38 -11.79 111.87 -12.08 112.41 -12.39C112.96 -12.7 113.54 -13.03 114.17 -13.38C114.79 -13.73 115.44 -14.12 116.12 -14.54C116.93 -15.06 117.76 -15.64 118.59 -16.29C119.43 -16.93 120.19 -17.6 120.87 -18.28C121.55 -18.96 122.11 -19.64 122.55 -20.31C122.98 -20.98 123.2 -21.59 123.2 -22.14ZM106.92 -9.76C107.12 -9.36 107.32 -9 107.53 -8.68C107.75 -8.36 107.93 -8.19 108.09 -8.16C108.8 -8.1 109.49 -8 110.15 -7.89C110.44 -7.83 110.74 -7.77 111.04 -7.71C111.34 -7.65 111.64 -7.57 111.94 -7.49C112.24 -7.41 112.52 -7.32 112.79 -7.22C113.06 -7.12 113.31 -7 113.54 -6.88C113.11 -5.99 112.55 -5.22 111.86 -4.57C111.18 -3.92 110.39 -3.37 109.48 -2.92C108.58 -2.47 107.57 -2.12 106.44 -1.85C105.32 -1.58 104.1 -1.39 102.8 -1.27C103.55 -2.45 104.28 -3.77 104.97 -5.23C105.67 -6.69 106.32 -8.2 106.92 -9.76ZM109.6 -17.93C110.65 -18.83 111.69 -19.67 112.72 -20.43C113.76 -21.19 114.76 -21.84 115.71 -22.39C116.66 -22.93 117.55 -23.35 118.38 -23.66C119.21 -23.96 119.95 -24.11 120.59 -24.11C120.69 -24.11 120.78 -24.09 120.85 -24.04C120.93 -23.99 120.99 -23.92 121.03 -23.85C121.08 -23.77 121.11 -23.7 121.11 -23.62C121.12 -23.54 121.1 -23.47 121.05 -23.41C120.31 -22.3 119.41 -21.3 118.37 -20.43C117.33 -19.55 116.22 -18.73 115.05 -17.95C113.88 -17.18 112.71 -16.42 111.52 -15.67C110.34 -14.93 109.23 -14.14 108.2 -13.3C108.47 -14.13 108.73 -14.93 108.96 -15.7C109.2 -16.47 109.41 -17.22 109.6 -17.93ZM97.81 -0.34C97.75 -0.34 97.69 -0.38 97.63 -0.46C97.58 -0.53 97.57 -0.65 97.61 -0.81C97.77 -1.61 98.02 -2.44 98.36 -3.29C98.69 -4.15 99.1 -5.01 99.58 -5.88C100.05 -6.75 100.59 -7.62 101.18 -8.5C101.78 -9.38 102.41 -10.24 103.09 -11.1C102.72 -10.12 102.35 -9.17 101.98 -8.25C101.61 -7.33 101.25 -6.48 100.89 -5.68C100.54 -4.88 100.19 -4.16 99.87 -3.5C99.54 -2.84 99.24 -2.28 98.97 -1.81C98.7 -1.35 98.47 -0.99 98.27 -0.73C98.07 -0.47 97.92 -0.34 97.81 -0.34Z M130.8 -4.23L129.95 -5.07C129.39 -4.54 128.83 -4.02 128.25 -3.51C127.68 -2.99 127.08 -2.53 126.47 -2.13C125.85 -1.73 125.2 -1.4 124.53 -1.15C123.86 -0.9 123.15 -0.77 122.39 -0.77C121.97 -0.77 121.68 -0.84 121.52 -0.96C121.37 -1.09 121.29 -1.33 121.29 -1.68C121.29 -1.95 121.31 -2.22 121.34 -2.49C122.35 -2.94 123.27 -3.38 124.11 -3.82C124.95 -4.27 125.66 -4.7 126.26 -5.12C126.86 -5.55 127.32 -5.96 127.64 -6.37C127.97 -6.77 128.13 -7.17 128.13 -7.56C128.13 -7.8 128.04 -8.09 127.87 -8.41C127.69 -8.74 127.46 -9.05 127.17 -9.35C126.88 -9.65 126.57 -9.9 126.22 -10.11C125.87 -10.31 125.51 -10.42 125.16 -10.42C124.67 -10.42 124.13 -10.34 123.54 -10.18C122.96 -10.01 122.37 -9.77 121.78 -9.45C121.19 -9.13 120.62 -8.73 120.08 -8.25C119.54 -7.77 119.05 -7.21 118.63 -6.58C118.2 -5.95 117.86 -5.25 117.61 -4.46C117.35 -3.68 117.22 -2.81 117.22 -1.87C117.22 -1.62 117.33 -1.32 117.55 -0.96C117.76 -0.61 118.04 -0.27 118.36 0.06C118.69 0.39 119.04 0.66 119.42 0.89C119.8 1.12 120.14 1.24 120.45 1.24C121.18 1.24 121.94 1.15 122.71 0.96C123.48 0.78 124.29 0.48 125.14 0.05C125.99 -0.37 126.88 -0.93 127.81 -1.63C128.75 -2.33 129.74 -3.2 130.8 -4.23ZM124.75 -8.52C124.87 -8.52 124.97 -8.48 125.03 -8.4C125.09 -8.32 125.13 -8.23 125.13 -8.13C125.13 -7.77 125.03 -7.42 124.83 -7.06C124.64 -6.71 124.38 -6.36 124.06 -6.02C123.74 -5.69 123.37 -5.36 122.97 -5.05C122.56 -4.74 122.15 -4.45 121.72 -4.18C121.91 -4.74 122.12 -5.28 122.38 -5.8C122.63 -6.32 122.89 -6.78 123.17 -7.18C123.44 -7.59 123.72 -7.91 123.99 -8.16C124.27 -8.4 124.52 -8.52 124.75 -8.52Z M131.64 0.95C131.9 0.95 132.23 0.85 132.62 0.67C133.01 0.49 133.43 0.25 133.88 -0.05C134.33 -0.35 134.8 -0.69 135.27 -1.07C135.75 -1.44 136.21 -1.82 136.65 -2.2C137.09 -2.58 137.5 -2.95 137.88 -3.31C138.26 -3.67 138.57 -3.98 138.82 -4.23C138.7 -4.37 138.56 -4.51 138.42 -4.68C138.28 -4.84 138.15 -4.97 138.05 -5.07C137.91 -4.96 137.71 -4.79 137.46 -4.56C137.2 -4.34 136.91 -4.09 136.59 -3.82C136.27 -3.55 135.93 -3.28 135.58 -3.01C135.22 -2.73 134.88 -2.48 134.57 -2.25C134.25 -2.02 133.97 -1.84 133.72 -1.69C133.47 -1.55 133.28 -1.48 133.15 -1.48C133.08 -1.48 133.05 -1.51 133.05 -1.58C133.05 -2.07 133.14 -2.7 133.31 -3.47C133.49 -4.24 133.73 -5.08 134.03 -6C134.33 -6.92 134.66 -7.88 135.04 -8.9C135.42 -9.92 135.82 -10.93 136.23 -11.93L139.63 -11.93C139.73 -11.93 139.82 -11.94 139.89 -11.96C139.96 -11.99 140 -12.01 140.03 -12.03C140.14 -12.13 140.28 -12.28 140.45 -12.48C140.61 -12.67 140.76 -12.86 140.89 -13.05C141.01 -13.23 141.1 -13.39 141.14 -13.53C141.19 -13.66 141.16 -13.73 141.04 -13.73L136.92 -13.58C137.26 -14.4 137.59 -15.19 137.92 -15.92C138.25 -16.66 138.55 -17.32 138.81 -17.9C139.08 -18.48 139.31 -18.96 139.49 -19.34C139.68 -19.73 139.8 -19.98 139.87 -20.09C139.89 -20.14 139.91 -20.17 139.91 -20.18L139.91 -20.21C139.91 -20.26 139.85 -20.28 139.73 -20.28C139.61 -20.28 139.4 -20.24 139.12 -20.15C138.83 -20.07 138.51 -19.96 138.16 -19.83C137.81 -19.71 137.46 -19.57 137.1 -19.42C136.74 -19.27 136.43 -19.14 136.18 -19.01C135.83 -18.85 135.56 -18.69 135.36 -18.54C135.16 -18.38 135 -18.23 134.88 -18.09C134.76 -17.95 134.67 -17.8 134.6 -17.66C134.54 -17.52 134.48 -17.38 134.42 -17.26C134.19 -16.79 133.93 -16.22 133.64 -15.56C133.35 -14.9 133.04 -14.19 132.72 -13.41L130.49 -13.3C130.4 -13.27 130.3 -13.19 130.2 -13.07C130.11 -12.95 130.02 -12.82 129.95 -12.68C129.87 -12.53 129.81 -12.4 129.76 -12.26C129.71 -12.13 129.68 -12.03 129.68 -11.96C129.68 -11.94 129.69 -11.93 129.7 -11.93L129.71 -11.93L132.14 -11.93C131.74 -10.89 131.34 -9.82 130.94 -8.73C130.55 -7.64 130.2 -6.62 129.89 -5.66C129.58 -4.71 129.33 -3.86 129.14 -3.11C128.95 -2.37 128.85 -1.82 128.85 -1.48C128.85 -1.28 128.96 -1.05 129.18 -0.77C129.4 -0.5 129.66 -0.23 129.95 0.03C130.25 0.28 130.56 0.5 130.87 0.68C131.19 0.86 131.44 0.95 131.64 0.95Z M147.62 -1.44C147.55 -1.44 147.52 -1.48 147.52 -1.55C147.52 -1.66 147.56 -1.86 147.64 -2.16C147.72 -2.45 147.82 -2.79 147.95 -3.17C148.08 -3.55 148.22 -3.98 148.38 -4.43C148.54 -4.89 148.7 -5.35 148.87 -5.8C149.04 -6.25 149.19 -6.68 149.33 -7.09C149.48 -7.5 149.6 -7.85 149.7 -8.16C149.73 -8.22 149.75 -8.3 149.77 -8.4C149.79 -8.49 149.79 -8.57 149.77 -8.63C149.71 -8.75 149.57 -8.91 149.33 -9.11C149.08 -9.3 148.82 -9.49 148.53 -9.68C148.25 -9.86 147.97 -10.02 147.71 -10.15C147.45 -10.28 147.26 -10.35 147.16 -10.35C147.01 -10.35 146.8 -10.29 146.51 -10.18C146.23 -10.07 145.89 -9.89 145.49 -9.63C145.09 -9.38 144.63 -9.03 144.12 -8.59C143.6 -8.16 143.03 -7.62 142.42 -6.98C142.6 -7.56 142.81 -8.16 143.03 -8.78C143.94 -9.65 144.81 -10.55 145.64 -11.48C146.47 -12.41 147.24 -13.33 147.96 -14.24C148.67 -15.15 149.33 -16.04 149.92 -16.9C150.51 -17.77 151.01 -18.58 151.42 -19.34C151.83 -20.09 152.16 -20.77 152.38 -21.38C152.61 -21.99 152.73 -22.5 152.73 -22.91C152.73 -22.97 152.72 -23.06 152.69 -23.19C152.67 -23.31 152.63 -23.42 152.56 -23.51C152.45 -23.65 152.31 -23.82 152.12 -24.01C151.93 -24.21 151.71 -24.41 151.47 -24.61C151.23 -24.82 150.98 -25.01 150.71 -25.18C150.44 -25.35 150.17 -25.48 149.91 -25.56C149.37 -25.52 148.78 -25.22 148.13 -24.66C147.48 -24.09 146.81 -23.34 146.1 -22.4C145.4 -21.47 144.68 -20.39 143.95 -19.17C143.23 -17.95 142.53 -16.67 141.86 -15.31C141.19 -13.96 140.56 -12.58 139.97 -11.18C139.38 -9.78 138.86 -8.43 138.42 -7.14C137.98 -5.85 137.63 -4.66 137.38 -3.56C137.13 -2.46 137 -1.53 137 -0.77C137 -0.64 137.02 -0.53 137.07 -0.46C137.12 -0.4 137.17 -0.32 137.24 -0.24C137.38 -0.11 137.56 0.03 137.79 0.19C138.02 0.35 138.26 0.5 138.5 0.64C138.74 0.79 138.97 0.91 139.18 1.01C139.4 1.12 139.56 1.17 139.67 1.17C139.81 1.17 139.92 1.14 139.98 1.08C140.05 1.03 140.1 0.93 140.13 0.81C140.39 -0.07 140.72 -0.91 141.11 -1.71C141.5 -2.51 141.91 -3.25 142.34 -3.94C142.77 -4.62 143.2 -5.25 143.64 -5.8C144.09 -6.36 144.49 -6.83 144.86 -7.23C145.24 -7.62 145.56 -7.93 145.82 -8.16C146.08 -8.39 146.26 -8.52 146.35 -8.54C146.12 -8.02 145.87 -7.42 145.6 -6.75C145.33 -6.08 145.08 -5.4 144.85 -4.71C144.61 -4.02 144.41 -3.35 144.24 -2.7C144.07 -2.05 143.97 -1.47 143.96 -0.98C143.96 -0.78 144.06 -0.59 144.25 -0.39C144.44 -0.19 144.66 0 144.93 0.16C145.2 0.33 145.48 0.47 145.78 0.58C146.07 0.68 146.32 0.74 146.54 0.74C146.8 0.74 147.13 0.65 147.52 0.48C147.91 0.31 148.33 0.08 148.78 -0.21C149.22 -0.49 149.68 -0.81 150.15 -1.17C150.62 -1.52 151.07 -1.88 151.51 -2.25C151.94 -2.62 152.35 -2.98 152.73 -3.33C153.11 -3.68 153.42 -3.98 153.67 -4.23C153.55 -4.37 153.41 -4.51 153.27 -4.68C153.13 -4.84 153 -4.97 152.9 -5.07C152.76 -4.96 152.56 -4.79 152.3 -4.56C152.03 -4.34 151.73 -4.09 151.4 -3.82C151.06 -3.55 150.71 -3.28 150.34 -3C149.97 -2.72 149.61 -2.46 149.26 -2.23C148.92 -2.01 148.6 -1.82 148.31 -1.67C148.02 -1.52 147.8 -1.44 147.62 -1.44ZM146.11 -16.23C146.62 -17.29 147.1 -18.28 147.56 -19.18C148.03 -20.09 148.45 -20.87 148.84 -21.52C149.23 -22.17 149.57 -22.68 149.85 -23.06C150.13 -23.43 150.34 -23.62 150.48 -23.62C150.57 -23.62 150.61 -23.49 150.61 -23.24C150.61 -22.7 150.44 -22.03 150.1 -21.24C149.75 -20.45 149.3 -19.59 148.73 -18.66C148.16 -17.72 147.52 -16.75 146.8 -15.74C146.08 -14.72 145.33 -13.72 144.56 -12.74C144.8 -13.32 145.05 -13.9 145.31 -14.48C145.57 -15.06 145.84 -15.64 146.11 -16.23Z"/></g><g id="SvgjsG1165" class="text" transform="translate(47.59999999999999, 47.4) scale(1)" light-content="false" fill="#141414"><path d="M0.6 -6.48L0.6 0L2.06 0C2.65 0 3.07 -0.17 3.31 -0.51C3.55 -0.85 3.67 -1.32 3.67 -1.93L3.67 -4.62C3.67 -5.19 3.55 -5.65 3.3 -5.98C3.05 -6.31 2.62 -6.48 2.02 -6.48ZM2.03 -0.34L1.03 -0.34L1.03 -6.13L2.02 -6.13C2.48 -6.13 2.8 -6 2.97 -5.74C3.15 -5.49 3.23 -5.1 3.23 -4.58L3.23 -1.98C3.23 -1.64 3.2 -1.35 3.14 -1.12C3.09 -0.89 2.97 -0.7 2.79 -0.56C2.62 -0.41 2.36 -0.34 2.03 -0.34Z M6.33 -6.48L6.33 0L8.59 0L8.59 -0.34L6.77 -0.34L6.77 -3.19L8.25 -3.19L8.25 -3.53L6.77 -3.53L6.77 -6.13L8.57 -6.13L8.57 -6.48Z M10.82 -1.6C10.9 -0.48 11.42 0.08 12.38 0.08C12.82 0.08 13.17 -0.04 13.43 -0.28C13.69 -0.52 13.82 -0.87 13.82 -1.34C13.82 -1.66 13.74 -1.96 13.57 -2.25C13.4 -2.54 13.16 -2.83 12.86 -3.12L11.7 -4.27C11.53 -4.44 11.4 -4.61 11.33 -4.76C11.26 -4.92 11.22 -5.09 11.22 -5.26C11.22 -5.57 11.32 -5.81 11.51 -5.96C11.7 -6.12 11.95 -6.2 12.26 -6.2C12.63 -6.2 12.91 -6.09 13.08 -5.88C13.24 -5.66 13.35 -5.31 13.38 -4.84L13.75 -4.93C13.71 -5.51 13.57 -5.93 13.32 -6.18C13.07 -6.43 12.71 -6.55 12.25 -6.55C11.82 -6.55 11.47 -6.44 11.21 -6.2C10.95 -5.97 10.82 -5.65 10.82 -5.22C10.82 -4.78 11.01 -4.37 11.39 -3.99L12.58 -2.82C12.87 -2.52 13.08 -2.27 13.22 -2.05C13.35 -1.83 13.42 -1.59 13.42 -1.32C13.42 -0.63 13.07 -0.28 12.38 -0.28C11.99 -0.28 11.71 -0.4 11.54 -0.64C11.37 -0.88 11.26 -1.24 11.19 -1.72Z M16.3 -6.48L16.3 0L16.74 0L16.74 -6.48Z M19.75 -0.42C19.98 -0.08 20.38 0.09 20.96 0.09C21.29 0.09 21.54 0.02 21.73 -0.12C21.92 -0.26 22.06 -0.46 22.14 -0.73L22.21 0L22.49 0L22.49 -3.09L21.05 -3.09L21.05 -2.75L22.08 -2.75L22.08 -1.8C22.08 -1.29 22 -0.91 21.84 -0.65C21.68 -0.4 21.4 -0.27 20.99 -0.27C20.56 -0.27 20.26 -0.4 20.1 -0.66C19.93 -0.93 19.85 -1.31 19.85 -1.82L19.85 -4.65C19.85 -5.15 19.93 -5.54 20.08 -5.8C20.24 -6.06 20.54 -6.19 20.98 -6.19C21.39 -6.19 21.67 -6.07 21.83 -5.84C21.99 -5.6 22.06 -5.23 22.06 -4.73L22.06 -4.48L22.48 -4.48L22.48 -4.7C22.48 -5.31 22.37 -5.77 22.14 -6.08C21.91 -6.39 21.52 -6.55 20.98 -6.55C20.4 -6.55 19.99 -6.39 19.76 -6.06C19.52 -5.73 19.41 -5.25 19.41 -4.63L19.41 -1.88C19.41 -1.25 19.52 -0.77 19.75 -0.42Z M25.22 -6.48L25.22 0L25.61 0L25.61 -5.48L27.81 0L28.15 0L28.15 -6.48L27.77 -6.48L27.77 -1.01L25.57 -6.48Z M33.79 -1.6C33.88 -0.48 34.4 0.08 35.35 0.08C35.79 0.08 36.15 -0.04 36.41 -0.28C36.67 -0.52 36.8 -0.87 36.8 -1.34C36.8 -1.66 36.71 -1.96 36.54 -2.25C36.37 -2.54 36.14 -2.83 35.84 -3.12L34.67 -4.27C34.5 -4.44 34.38 -4.61 34.31 -4.76C34.24 -4.92 34.2 -5.09 34.2 -5.26C34.2 -5.57 34.29 -5.81 34.48 -5.96C34.67 -6.12 34.92 -6.2 35.23 -6.2C35.61 -6.2 35.88 -6.09 36.05 -5.88C36.22 -5.66 36.32 -5.31 36.36 -4.84L36.73 -4.93C36.69 -5.51 36.55 -5.93 36.3 -6.18C36.05 -6.43 35.69 -6.55 35.22 -6.55C34.79 -6.55 34.45 -6.44 34.19 -6.2C33.93 -5.97 33.8 -5.65 33.8 -5.22C33.8 -4.78 33.99 -4.37 34.37 -3.99L35.55 -2.82C35.85 -2.52 36.06 -2.27 36.19 -2.05C36.33 -1.83 36.39 -1.59 36.39 -1.32C36.39 -0.63 36.05 -0.28 35.36 -0.28C34.97 -0.28 34.68 -0.4 34.52 -0.64C34.35 -0.88 34.23 -1.24 34.17 -1.72Z M40.13 -6.13L40.13 0L40.56 0L40.56 -6.13L41.82 -6.13L41.82 -6.48L38.83 -6.48L38.83 -6.13Z M44.47 -0.34C44.71 -0.05 45.13 0.09 45.72 0.09C46.29 0.09 46.7 -0.06 46.95 -0.34C47.2 -0.63 47.33 -1.02 47.33 -1.52L47.33 -6.48L46.9 -6.48L46.9 -1.51C46.9 -1.13 46.81 -0.83 46.62 -0.61C46.44 -0.38 46.14 -0.27 45.72 -0.27C45.28 -0.27 44.98 -0.38 44.8 -0.6C44.62 -0.81 44.54 -1.12 44.54 -1.51L44.54 -6.48L44.1 -6.48L44.1 -1.52C44.1 -1.01 44.23 -0.62 44.47 -0.34Z M50.05 -6.48L50.05 0L51.5 0C52.1 0 52.51 -0.17 52.76 -0.51C53 -0.85 53.12 -1.32 53.12 -1.93L53.12 -4.62C53.12 -5.19 52.99 -5.65 52.74 -5.98C52.49 -6.31 52.07 -6.48 51.46 -6.48ZM51.48 -0.34L50.48 -0.34L50.48 -6.13L51.46 -6.13C51.93 -6.13 52.25 -6 52.42 -5.74C52.59 -5.49 52.68 -5.1 52.68 -4.58L52.68 -1.98C52.68 -1.64 52.65 -1.35 52.59 -1.12C52.53 -0.89 52.42 -0.7 52.24 -0.56C52.06 -0.41 51.81 -0.34 51.48 -0.34Z M55.79 -6.48L55.79 0L56.22 0L56.22 -6.48Z M59.25 -0.42C59.49 -0.08 59.9 0.09 60.5 0.09C61.09 0.09 61.5 -0.08 61.74 -0.42C61.98 -0.75 62.1 -1.22 62.1 -1.83L62.1 -4.67C62.1 -5.26 61.97 -5.73 61.73 -6.06C61.48 -6.39 61.07 -6.55 60.5 -6.55C59.91 -6.55 59.5 -6.39 59.26 -6.06C59.02 -5.73 58.9 -5.27 58.9 -4.67L58.9 -1.84C58.9 -1.23 59.01 -0.76 59.25 -0.42ZM61.4 -0.65C61.24 -0.4 60.93 -0.27 60.5 -0.27C60.06 -0.27 59.76 -0.4 59.59 -0.64C59.42 -0.89 59.34 -1.26 59.34 -1.74L59.34 -4.74C59.34 -5.22 59.42 -5.58 59.59 -5.82C59.76 -6.07 60.06 -6.19 60.5 -6.19C60.93 -6.19 61.24 -6.07 61.4 -5.82C61.57 -5.58 61.66 -5.22 61.66 -4.74L61.66 -1.74C61.66 -1.26 61.57 -0.9 61.4 -0.65Z"/></g></g></svg>